<?xml version="1.0" encoding="iso-8859-1"?>
<!-- Generator: Adobe Illustrator 19.0.0, SVG Export Plug-In . SVG Version: 6.00 Build 0)  -->
<svg version="1.1" id="Layer_1" xmlns="http://www.w3.org/2000/svg" xmlns:xlink="http://www.w3.org/1999/xlink" x="0px" y="0px"
	 viewBox="0 0 511.999 511.999" style="enable-background:new 0 0 511.999 511.999;" xml:space="preserve">
<polygon style="fill:#084B63;" points="391.233,45.492 369.162,67.54 342.854,52.148 375.818,30.099 "/>
<polygon style="fill:#146A8A;" points="353.868,8.17 375.818,30.099 348.45,57.444 331.797,30.219 "/>
<polygon style="fill:#084B63;" points="369.162,67.54 307.668,128.97 270.466,110.298 353.748,52.148 "/>
<g>
	<polygon style="fill:#146A8A;" points="331.797,30.219 353.748,52.148 285.701,120.118 270.303,91.637 	"/>
	<rect x="222.785" y="208.776" style="fill:#146A8A;" width="43.186" height="53.913"/>
	
		<rect x="143.146" y="165.532" transform="matrix(-0.9167 0.3997 -0.3997 -0.9167 400.8199 290.6689)" style="fill:#146A8A;" width="53.915" height="43.188"/>
</g>
<polygon style="fill:#084B63;" points="322.352,427.967 322.352,493.274 246.097,493.274 278.778,427.967 "/>
<rect x="218.558" y="427.967" style="fill:#146A8A;" width="60.22" height="65.307"/>
<path style="fill:#419EBE;" d="M398.15,184.559l-85.395-29.707l-4.227,13.203l76.811,64.458l25.241,73.924l18.432-2.723v-75.776
	C429.012,209.985,415.123,190.463,398.15,184.559z"/>
<path style="fill:#62B3CD;" d="M410.58,237.002v69.436l-36.853,5.447v-56.745c0-8.976-6.297-20.121-13.998-24.75l-59.653-35.916
	l8.453-26.417l76.811,31.777C399.229,205.312,410.58,222.045,410.58,237.002z"/>
<polygon style="fill:#82C8DB;" points="429.012,320.054 429.012,471.487 385.437,482.38 385.437,309.161 "/>
<rect x="300.565" y="311.884" style="fill:#A3DDE9;" width="95.766" height="170.496"/>
<path style="fill:#084B63;" d="M91.397,471.487c-17.876,0-32.376,14.478-32.376,32.343h369.991v-32.343H91.397z"/>
<path style="fill:#06384A;" d="M181.756,303.718c-4.512,0-8.17,3.657-8.17,8.17c0,4.513,3.658,8.17,8.17,8.17H429.01v-16.34H181.756
	z"/>
<path style="fill:#084B63;" d="M407.846,348.683v91.376c24.946-0.327,45.132-20.698,45.132-45.688S432.792,349.009,407.846,348.683z
	"/>
<path style="fill:#146A8A;" d="M407.846,348.683c12.931,0.632,23.345,20.883,23.345,45.688s-10.414,45.056-23.345,45.688
	c-0.207,0.011-0.414,0.011-0.621,0.011c-25.23,0-45.753-20.502-45.753-45.699s20.524-45.699,45.753-45.699
	C407.432,348.672,407.639,348.672,407.846,348.683z"/>
<path style="fill:#82C8DB;" d="M307.668,128.97l-37.365-37.332c-7.996-3.268-16.754-5.076-25.927-5.076v136.595
	c37.757,0,68.379-30.578,68.379-68.303C312.755,145.691,310.947,136.955,307.668,128.97z"/>
<path style="fill:#A3DDE9;" d="M244.376,86.561c-37.768,0-68.379,30.578-68.379,68.292c0,37.725,30.611,68.303,68.379,68.303
	c19.717,0,35.698-30.578,35.698-68.303C280.074,117.139,264.093,86.561,244.376,86.561z"/>
<path d="M461.146,394.372c0-18.637-9.525-35.091-23.966-44.766V227.933c0-21.562-15.967-44.005-36.35-51.092l-80.153-27.877
	c-0.465-6.112-1.655-12.096-3.557-17.895l57.824-57.756l0,0l0.001-0.001l22.064-22.038c1.534-1.533,2.397-3.612,2.397-5.781
	c0-2.168-0.863-4.247-2.397-5.781L359.644,2.389c-3.191-3.185-8.358-3.185-11.548,0l-79.897,79.802
	c-7.664-2.51-15.65-3.801-23.824-3.801c-42.208,0-76.547,34.302-76.547,76.466c0,0.285,0.019,0.568,0.022,0.853l-34.339,14.935
	c-1.988,0.865-3.551,2.485-4.344,4.502c-0.794,2.018-0.753,4.268,0.113,6.255l17.242,39.548c1.34,3.073,4.342,4.908,7.494,4.908
	c1.088,0,2.194-0.219,3.255-0.68l34.388-14.958c6.64,6.312,14.394,11.463,22.955,15.087v37.386c0,4.513,3.658,8.17,8.17,8.17h43.186
	c4.512,0,8.17-3.657,8.17-8.17v-37.386c10.752-4.549,20.239-11.5,27.823-20.155l53.557,32.237
	c5.254,3.162,10.038,11.621,10.038,17.746v24.113c0,4.513,3.658,8.17,8.17,8.17c4.512,0,8.17-3.657,8.17-8.17v-24.113
	c0-11.936-7.718-25.584-17.953-31.746l-52.553-31.632c4.339-7.833,7.342-16.499,8.701-25.696l75.37,26.213
	c13.755,4.784,25.377,21.114,25.377,35.658v75.786H181.756c-4.512,0-8.17,3.657-8.17,8.17c0,4.513,3.658,8.17,8.17,8.17h110.639
	v99.738h-73.842c-4.512,0-8.17,3.657-8.17,8.17v35.352H91.401c-22.358,0-40.548,18.174-40.548,40.511c0,4.513,3.658,8.17,8.17,8.17
	H429.01c4.512,0,8.17-3.657,8.17-8.17v-64.692C451.619,429.462,461.146,413.009,461.146,394.372z M331.797,41.763l25.805,25.774
	l-49.937,49.879l-25.804-25.774L331.797,41.763z M353.87,19.717l25.806,25.774l-10.51,10.498l-25.805-25.774L353.87,19.717z
	 M147.525,182.369l22.409-9.747c2.125,8.885,5.794,17.175,10.728,24.561l-22.426,9.755L147.525,182.369z M257.797,254.523h-26.845
	v-24.4c4.362,0.775,8.841,1.202,13.422,1.202s9.061-0.427,13.423-1.202V254.523z M244.374,214.983
	c-33.198,0-60.207-26.973-60.207-60.126s27.009-60.125,60.207-60.125c7.37,0,14.544,1.307,21.349,3.887l34.971,34.929
	c2.581,6.793,3.888,13.955,3.888,21.309C304.582,188.011,277.572,214.983,244.374,214.983z M226.723,436.137h65.672v27.182h-65.672
	V436.137z M420.839,495.66H68.617c3.362-9.319,12.307-16.001,22.785-16.001H396.33c4.512,0,8.17-3.657,8.17-8.17
	c0-4.513-3.658-8.17-8.17-8.17h-87.594v-143.26h112.104v22.187c-4.352-1.135-8.914-1.744-13.617-1.744
	c-29.733,0-53.923,24.166-53.923,53.869c0,29.703,24.19,53.869,53.923,53.869c4.703,0,9.265-0.608,13.617-1.744V495.66z
	 M425.159,427.344c-0.027,0.014-0.056,0.029-0.083,0.045c-5.314,2.877-11.397,4.513-17.855,4.513
	c-20.723,0-37.583-16.835-37.583-37.529s16.86-37.529,37.583-37.529c6.462,0,12.548,1.637,17.866,4.519
	c0.02,0.011,0.04,0.022,0.06,0.033c11.701,6.366,19.658,18.761,19.658,32.977C444.805,408.584,436.853,420.974,425.159,427.344z"/>
<g>
</g>
<g>
</g>
<g>
</g>
<g>
</g>
<g>
</g>
<g>
</g>
<g>
</g>
<g>
</g>
<g>
</g>
<g>
</g>
<g>
</g>
<g>
</g>
<g>
</g>
<g>
</g>
<g>
</g>
</svg>
